<svg xmlns="http://www.w3.org/2000/svg" viewBox="0 0 1200 900" role="img" aria-labelledby="title desc">
  <title id="title">Kai character preview</title>
  <desc id="desc">A brave cartoon boy adventurer standing on a glowing OPREALM platform.</desc>
  <defs>
    <radialGradient id="bgGlow" cx="50%" cy="52%" r="55%">
      <stop offset="0" stop-color="#713cff" stop-opacity=".55"/>
      <stop offset=".45" stop-color="#103e88" stop-opacity=".34"/>
      <stop offset="1" stop-color="#050817"/>
    </radialGradient>
    <linearGradient id="platform" x1="238" x2="962" y1="738" y2="738">
      <stop stop-color="#22d9ff"/>
      <stop offset=".5" stop-color="#884dff"/>
      <stop offset="1" stop-color="#f641d5"/>
    </linearGradient>
    <linearGradient id="jacket" x1="455" x2="720" y1="388" y2="612">
      <stop stop-color="#ff8a35"/>
      <stop offset=".55" stop-color="#d94e25"/>
      <stop offset="1" stop-color="#7d2bff"/>
    </linearGradient>
    <linearGradient id="backpack" x1="384" x2="512" y1="397" y2="606">
      <stop stop-color="#23d9ff"/>
      <stop offset="1" stop-color="#283cff"/>
    </linearGradient>
    <filter id="softGlow" x="-30%" y="-30%" width="160%" height="160%">
      <feGaussianBlur stdDeviation="12" result="blur"/>
      <feColorMatrix in="blur" type="matrix" values="0 0 0 0 0.13 0 0 0 0 0.85 0 0 0 0 1 0 0 0 .8 0"/>
      <feMerge>
        <feMergeNode/>
        <feMergeNode in="SourceGraphic"/>
      </feMerge>
    </filter>
    <filter id="shadow" x="-20%" y="-20%" width="140%" height="140%">
      <feDropShadow dx="0" dy="22" stdDeviation="20" flood-color="#000" flood-opacity=".42"/>
    </filter>
  </defs>
  <rect width="1200" height="900" fill="#050817"/>
  <rect width="1200" height="900" fill="url(#bgGlow)"/>
  <g opacity=".42">
    <circle cx="160" cy="145" r="5" fill="#22d9ff"/>
    <circle cx="1010" cy="144" r="4" fill="#f641d5"/>
    <circle cx="970" cy="590" r="7" fill="#884dff"/>
    <circle cx="245" cy="620" r="4" fill="#22d9ff"/>
    <circle cx="812" cy="250" r="5" fill="#fff"/>
    <circle cx="360" cy="205" r="3" fill="#fff"/>
    <path d="M140 380l18 6-18 6-6 18-6-18-18-6 18-6 6-18z" fill="#22d9ff"/>
    <path d="M992 348l25 8-25 8-8 25-8-25-25-8 25-8 8-25z" fill="#f641d5"/>
    <path d="M894 160l16 5-16 5-5 16-5-16-16-5 16-5 5-16z" fill="#fff"/>
  </g>
  <ellipse cx="600" cy="758" rx="310" ry="58" fill="url(#platform)" opacity=".82" filter="url(#softGlow)"/>
  <ellipse cx="600" cy="742" rx="210" ry="35" fill="#07112e" opacity=".75"/>
  <g filter="url(#shadow)">
    <path d="M437 428c-42 12-72 46-77 95l-18 190h74l29-162z" fill="url(#backpack)"/>
    <path d="M762 428c42 12 72 46 77 95l18 190h-74l-29-162z" fill="#1d2d69"/>
    <path d="M500 580h85v174h-82z" fill="#202b55"/>
    <path d="M616 580h85l-3 174h-82z" fill="#202b55"/>
    <path d="M487 742h109v43c-35 20-83 20-123 0z" fill="#15192e"/>
    <path d="M604 742h110v43c-36 20-84 20-124 0z" fill="#15192e"/>
    <path d="M466 383c52-48 207-48 267 0 45 36 56 114 22 188-40 87-275 87-316 0-34-74-18-152 27-188z" fill="url(#jacket)"/>
    <path d="M523 407h154l-27 176h-100z" fill="#111b3b" opacity=".8"/>
    <path d="M542 423h118l-21 118h-76z" fill="#243969"/>
    <path d="M558 440h86l-16 82h-54z" fill="#22d9ff" opacity=".22"/>
    <path d="M464 396c-30 38-53 94-58 160l54 7 44-133z" fill="#f26b2d"/>
    <path d="M738 396c30 38 53 94 58 160l-54 7-44-133z" fill="#8b49ff"/>
    <path d="M388 552c-8 31 2 58 27 69 21 9 42-7 39-29l-5-41z" fill="#f3b184"/>
    <path d="M813 552c8 31-2 58-27 69-21 9-42-7-39-29l5-41z" fill="#f3b184"/>
    <path d="M500 255c-13-78 41-129 105-130 66-1 121 51 105 131 39 15 58 50 45 89-19 57-88 75-153 75-65 0-136-18-156-75-14-39 13-76 54-90z" fill="#4b2515"/>
    <path d="M490 280c12-64 65-98 117-98 57 0 105 36 116 98 8 49-14 102-58 130-39 25-91 25-131 0-43-28-52-81-44-130z" fill="#f2b480"/>
    <path d="M506 260c36 12 74 2 106-29 31 35 68 48 111 39-9-72-59-120-119-120-61 0-105 43-98 110z" fill="#32150d"/>
    <path d="M520 292c22-28 48-42 75-43-24 21-44 41-60 69z" fill="#5e2b15"/>
    <path d="M602 168c-34 27-74 41-119 40 24-52 68-80 119-83z" fill="#6b3218"/>
    <circle cx="560" cy="315" r="15" fill="#2a1b1a"/>
    <circle cx="648" cy="315" r="15" fill="#2a1b1a"/>
    <circle cx="565" cy="309" r="5" fill="#fff"/>
    <circle cx="653" cy="309" r="5" fill="#fff"/>
    <path d="M574 371c22 24 59 24 82 0" fill="none" stroke="#9b3d2c" stroke-width="10" stroke-linecap="round"/>
    <path d="M608 326l-12 34h28z" fill="#df936c"/>
    <path d="M510 288c22-18 50-22 78-13" stroke="#2a120a" stroke-width="10" stroke-linecap="round"/>
    <path d="M625 275c27-9 55-5 76 13" stroke="#2a120a" stroke-width="10" stroke-linecap="round"/>
    <path d="M454 405l-30 124 53 14 34-118z" fill="#1a2b68"/>
    <path d="M746 405l31 124-53 14-35-118z" fill="#1a2b68"/>
    <path d="M513 584c30 19 58 28 87 28s58-9 88-28l14 35c-65 39-134 39-203 0z" fill="#0d1737"/>
    <path d="M414 620l38-28" stroke="#22d9ff" stroke-width="13" stroke-linecap="round"/>
    <path d="M788 620l-38-28" stroke="#22d9ff" stroke-width="13" stroke-linecap="round"/>
    <path d="M423 421c-26 18-46 54-55 99" stroke="#22d9ff" stroke-width="8" stroke-linecap="round" opacity=".75"/>
    <path d="M777 421c26 18 46 54 55 99" stroke="#884dff" stroke-width="8" stroke-linecap="round" opacity=".75"/>
  </g>
  <path d="M314 760c122 62 446 66 574 0" fill="none" stroke="#22d9ff" stroke-width="5" opacity=".5"/>
</svg>
