<svg xmlns="http://www.w3.org/2000/svg" viewBox="0 0 64 64" role="img" aria-label="Stories">
  <defs><linearGradient id="g" x1="10" x2="54" y1="9" y2="55"><stop stop-color="#e032ff"/><stop offset="1" stop-color="#18d9ff"/></linearGradient></defs>
  <path fill="url(#g)" d="M9 14c8-3 16-2 23 4 7-6 15-7 23-4v38c-8-3-16-2-23 4-7-6-15-7-23-4Z"/>
  <path fill="#fff" opacity=".88" d="M17 23c4-.5 8 .5 11 3v5c-3-2-7-3-11-3Zm0 11c4-.5 8 .5 11 3v5c-3-2-7-3-11-3Zm19-8c3-2.5 7-3.5 11-3v5c-4 0-8 1-11 3Zm0 11c3-2.5 7-3.5 11-3v5c-4 0-8 1-11 3Z"/>
</svg>
