<svg xmlns="http://www.w3.org/2000/svg" viewBox="0 0 32 32"><title>Artboard-21</title><g id="Bell"><path d="M27.3418,19.5527,25,18.3818V13A9,9,0,0,0,7,13v5.3818L4.6582,19.5527A2.9845,2.9845,0,0,0,3,22.2363V25a2.0023,2.0023,0,0,0,2,2H27a2.0023,2.0023,0,0,0,2-2V22.2363A2.9845,2.9845,0,0,0,27.3418,19.5527Z" fill="currentColor"/><path d="M16,32a5.9847,5.9847,0,0,0,5.19-3H10.81A5.9847,5.9847,0,0,0,16,32Z" fill="currentColor"/><path d="M20.58,3a4.9961,4.9961,0,0,0-9.16,0,10.9882,10.9882,0,0,1,9.16,0Z" fill="currentColor"/></g></svg>
