<svg xmlns="http://www.w3.org/2000/svg" viewBox="0 0 32 32"><title>Artboard-22</title><g id="Camera"><path d="M29,6H27a1,1,0,0,1,0-2h2a1,1,0,0,1,0,2Z" fill="currentColor"/><path d="M29,7H26.1621a1.9968,1.9968,0,0,1-1.897-1.3682l-.6328-1.8964A3.9944,3.9944,0,0,0,19.8379,1H12.1621A3.9944,3.9944,0,0,0,8.3677,3.7354L7.7349,5.6318A1.9968,1.9968,0,0,1,5.8379,7H3a3.0033,3.0033,0,0,0-3,3V28a3.0033,3.0033,0,0,0,3,3H29a3.0033,3.0033,0,0,0,3-3V10A3.0033,3.0033,0,0,0,29,7ZM5,12H4a1,1,0,0,1,0-2H5a1,1,0,0,1,0,2ZM16,27a9,9,0,1,1,9-9A9.01,9.01,0,0,1,16,27Z" fill="currentColor"/><circle cx="16" cy="18" r="7" fill="currentColor"/></g></svg>
