<svg xmlns="http://www.w3.org/2000/svg" viewBox="0 0 32 32"><title>Artboard-35</title><g id="Document"><path d="M21,9h6.4141L20,1.5859V8A1.0006,1.0006,0,0,0,21,9Z" fill="currentColor"/><path d="M21,11a3.0033,3.0033,0,0,1-3-3V1H9A5.0059,5.0059,0,0,0,4,6V26a5.0059,5.0059,0,0,0,5,5H23a5.0059,5.0059,0,0,0,5-5V11ZM9,5h6a1,1,0,0,1,0,2H9A1,1,0,0,1,9,5ZM9,9h6a1,1,0,0,1,0,2H9A1,1,0,0,1,9,9ZM23,27H9a1,1,0,0,1,0-2H23a1,1,0,0,1,0,2Zm0-4H9a1,1,0,0,1,0-2H23a1,1,0,0,1,0,2Zm0-4H9a1,1,0,0,1,0-2H23a1,1,0,0,1,0,2Zm0-4H9a1,1,0,0,1,0-2H23a1,1,0,0,1,0,2Z" fill="currentColor"/></g></svg>
