<svg xmlns="http://www.w3.org/2000/svg" viewBox="0 0 32 32"><title>Artboard-23</title><g id="Favorite"><path d="M31.8486,12.0176a2.7928,2.7928,0,0,0-2.2226-1.875L21.91,8.9492,18.5371,1.6309a2.7885,2.7885,0,0,0-5.0737,0L10.09,8.9492,2.375,10.1426a2.7921,2.7921,0,0,0-2.2231,1.875,2.8219,2.8219,0,0,0,.6357,2.8681L6.48,20.8232,5.21,28.7275a2.79,2.79,0,0,0,1.251,2.8213,2.7435,2.7435,0,0,0,3.04-.0127L16,27.2588l6.498,4.2783a2.8,2.8,0,0,0,4.2911-2.81l-1.2686-7.9043,5.6924-5.9375A2.823,2.823,0,0,0,31.8486,12.0176Z" fill="currentColor"/></g></svg>
