<svg xmlns="http://www.w3.org/2000/svg" viewBox="0 0 32 32"><title>Artboard-37</title><g id="Gear"><path d="M28.0693,16l3.0059-2.7568a1.9884,1.9884,0,0,0,.38-2.4737l-3.1978-5.539a1.9889,1.9889,0,0,0-2.333-.9082L22.4541,5.415,21.94,5.1182l-.79-3.5518A1.9874,1.9874,0,0,0,19.1978,0H12.8022A1.9874,1.9874,0,0,0,10.85,1.5664l-.79,3.5518-.5146.2968L6.0747,4.3223a1.9832,1.9832,0,0,0-2.3325.9082L.5444,10.77a1.9884,1.9884,0,0,0,.38,2.4737L3.9307,16,.9248,18.7568a1.9884,1.9884,0,0,0-.38,2.4737L3.7422,26.77a1.9871,1.9871,0,0,0,2.333.9082L9.5459,26.585l.5146.2968.79,3.5518A1.9874,1.9874,0,0,0,12.8022,32h6.3956A1.9874,1.9874,0,0,0,21.15,30.4336l.79-3.5518.5146-.2968,3.4712,1.0927a1.991,1.991,0,0,0,2.3325-.9082l3.1978-5.539a1.9884,1.9884,0,0,0-.38-2.4737ZM16,23a7,7,0,1,1,7-7A7.0081,7.0081,0,0,1,16,23Z" fill="currentColor"/><circle cx="16" cy="16" r="5" fill="currentColor"/></g></svg>
