<svg xmlns="http://www.w3.org/2000/svg" viewBox="0 0 32 32"><title>Artboard-24</title><g id="Love"><path d="M28.5713,4.0332a7.8347,7.8347,0,0,0-6.0322-2A9.5321,9.5321,0,0,0,16,5.8926,9.5319,9.5319,0,0,0,9.46,2.0332a7.8069,7.8069,0,0,0-6.03,2A11.01,11.01,0,0,0,.0029,11.8994c-.205,8.835,9.6563,15.0664,15.5528,17.9942a.9976.9976,0,0,0,.8886,0c5.8965-2.9278,15.7578-9.1582,15.5528-17.9942A11.0133,11.0133,0,0,0,28.5713,4.0332ZM8.71,7C6.2607,7,5.05,9.9932,5.002,12.0156a1,1,0,0,1-1,.9766H3.9785a1.0009,1.0009,0,0,1-.9765-1.0234C3.07,9.0752,4.8867,5,8.71,5a1,1,0,0,1,0,2Z" fill="currentColor"/></g></svg>
