<svg xmlns="http://www.w3.org/2000/svg" viewBox="0 0 32 32"><title>Artboard-1</title><g id="Home"><path d="M31.4707,9.1177l-15-8a1,1,0,0,0-.9414,0l-15,8a1,1,0,0,0-.4579,1.2539l1.2524,3.1309a1,1,0,0,0,1.4025.509l12.8-6.8919a1,1,0,0,1,.9482,0l12.8,6.8921a1,1,0,0,0,1.4026-.5091l1.2523-3.131A1,1,0,0,0,31.4707,9.1177Z" fill="currentColor"/><path d="M19,23v8H13V23a3,3,0,0,1,6,0Z" fill="currentColor"/><path d="M27,15.06V28a3.0088,3.0088,0,0,1-3,3H21V23a5,5,0,0,0-10,0v8H8a3.0088,3.0088,0,0,1-3-3V15.06L16,9.14Z" fill="currentColor"/></g></svg>
