<svg xmlns="http://www.w3.org/2000/svg" viewBox="0 0 32 32"><title>Artboard-34</title><g id="Image"><circle cx="10" cy="10" r="5" fill="currentColor"/><path d="M28,0H4A3.9989,3.9989,0,0,0,0,4V28a3.9989,3.9989,0,0,0,4,4H28a3.9989,3.9989,0,0,0,4-4V4A3.9989,3.9989,0,0,0,28,0Zm2,14.58-2.29-2.29a1.06,1.06,0,0,0-.74-.29,1.0231,1.0231,0,0,0-.72.34l-5.96,6.71,9.6,9.59a1.9914,1.9914,0,0,1-1.51,1.32L15.71,17.29a.9726.9726,0,0,0-.75-.29.9974.9974,0,0,0-.72.35L3.58,29.95A1.9952,1.9952,0,0,1,2,28V4A2.0059,2.0059,0,0,1,4,2H28a2.0059,2.0059,0,0,1,2,2Z" fill="currentColor"/></g></svg>
