<svg xmlns="http://www.w3.org/2000/svg" viewBox="0 0 32 32"><title>Artboard-18</title><g id="Locked"><path d="M23,10V7A7,7,0,0,0,9,7v3a4.0045,4.0045,0,0,0-4,4V28a4.0045,4.0045,0,0,0,4,4H23a4.0042,4.0042,0,0,0,4-4V14A4.0042,4.0042,0,0,0,23,10ZM11,7A5,5,0,0,1,21,7v3H11Zm8,15.9976V25a3,3,0,0,1-6,0V22.9966a5.0022,5.0022,0,0,1,4.2129-8.853,4.9444,4.9444,0,0,1,3.6357,3.6123A5.0079,5.0079,0,0,1,19,22.9976Z" fill="currentColor"/><path d="M18.9053,18.2266A2.9673,2.9673,0,0,0,16.751,16.09a3.277,3.277,0,0,0-.7573-.0908A3,3,0,0,0,13,19a2.9968,2.9968,0,0,0,1.4985,2.5928A1.0011,1.0011,0,0,1,15,22.46V25a1,1,0,0,0,2,0V22.46a1.0006,1.0006,0,0,1,.502-.8672,3.0168,3.0168,0,0,0,1.4033-3.3657Z" fill="currentColor"/></g></svg>
