<svg xmlns="http://www.w3.org/2000/svg" viewBox="0 0 32 32"><title>Artboard-3</title><g id="MIc"><path d="M16,20a6.0066,6.0066,0,0,0,6-6V4a4.0042,4.0042,0,0,0-4-4H14a4.0045,4.0045,0,0,0-4,4V14A6.0066,6.0066,0,0,0,16,20Z" fill="currentColor"/><path d="M26,14V12a1,1,0,0,0-2,0v2A8,8,0,0,1,8,14V12a1,1,0,0,0-2,0v2a10.0131,10.0131,0,0,0,9,9.9493V27H11a1,1,0,0,0-.9487.6836l-1,3A1.0005,1.0005,0,0,0,10,32H22a.9994.9994,0,0,0,.9482-1.3164l-1-3A.9988.9988,0,0,0,21,27H17V23.9493A10.0135,10.0135,0,0,0,26,14Z" fill="currentColor"/></g></svg>
