<svg xmlns="http://www.w3.org/2000/svg" viewBox="0 0 32 32"><title>Artboard-33</title><g id="Monitor"><path d="M24,30a3.0005,3.0005,0,0,1-2.82-2H10.82A3.0005,3.0005,0,0,1,8,30a1,1,0,0,0,0,2H24a1,1,0,0,0,0-2Z" fill="currentColor"/><path d="M0,21a5.0059,5.0059,0,0,0,5,5H27a5.0059,5.0059,0,0,0,5-5V20H0Zm14,1h4a1,1,0,0,1,0,2H14a1,1,0,0,1,0-2Z" fill="currentColor"/><path d="M27,0H5A5.0059,5.0059,0,0,0,0,5V18H32V5A5.0059,5.0059,0,0,0,27,0ZM11.293,6.293l2-2a1,1,0,1,1,1.414,1.414l-2,2a1,1,0,0,1-1.414-1.414Zm9.414,5.414-2,2a1,1,0,0,1-1.414-1.414l2-2a1,1,0,0,1,1.414,1.414Zm0-6-8,8a1,1,0,0,1-1.414-1.414l8-8a1,1,0,1,1,1.414,1.414Z" fill="currentColor"/></g></svg>
