<svg xmlns="http://www.w3.org/2000/svg" viewBox="0 0 32 32"><title>Artboard-10</title><g id="Save"><rect x="6" width="9" height="7" fill="currentColor"/><rect x="17" width="2" height="7" fill="currentColor"/><rect x="10" y="21" width="12" height="2" fill="currentColor"/><path d="M6,32H26V17H6ZM8,20a1,1,0,0,1,1-1H23a1,1,0,0,1,1,1v4a1,1,0,0,1-1,1H9a1,1,0,0,1-1-1Z" fill="currentColor"/><path d="M30.8281,7.4141,24.5859,1.1719A4.0246,4.0246,0,0,0,21.7578,0H21V8a1,1,0,0,1-1,1H5A1,1,0,0,1,4,8V0H3A3.0033,3.0033,0,0,0,0,3V29a3.0033,3.0033,0,0,0,3,3H4V16a1,1,0,0,1,1-1H27a1,1,0,0,1,1,1V32h1a3.0033,3.0033,0,0,0,3-3V10.2427A3.9752,3.9752,0,0,0,30.8281,7.4141ZM19,13H13a1,1,0,0,1,0-2h6a1,1,0,0,1,0,2Z" fill="currentColor"/></g></svg>
