<svg xmlns="http://www.w3.org/2000/svg" viewBox="0 0 32 32"><title>Artboard-14</title><g id="Search"><path d="M20,10A10,10,0,1,0,10,20,10.0114,10.0114,0,0,0,20,10ZM10,18a8,8,0,1,1,8-8A8.0092,8.0092,0,0,1,10,18Z" fill="currentColor"/><path d="M10,4a6,6,0,1,0,6,6A6.0066,6.0066,0,0,0,10,4Zm0,3a3.0033,3.0033,0,0,0-3,3,1,1,0,0,1-2,0,5.0059,5.0059,0,0,1,5-5,1,1,0,0,1,0,2Z" fill="currentColor"/><path d="M20.75,15.33a12.0486,12.0486,0,0,1-5.42,5.42L17.58,23,23,17.58Z" fill="currentColor"/><path d="M30.46,23.05l-4.3329-4.3415a1,1,0,0,0-1.4149-.0007L23.73,19.69l-4.05,4.04-.9764.9822a1,1,0,0,0,.0028,1.4128L23.05,30.46a5.24,5.24,0,1,0,7.41-7.41Z" fill="currentColor"/></g></svg>
