<svg xmlns="http://www.w3.org/2000/svg" viewBox="0 0 32 32"><title>Artboard-39</title><g id="Sound"><path d="M22.8271,13.1729a1,1,0,1,0-1.414,1.414,1.9946,1.9946,0,0,1,0,2.8262,1,1,0,1,0,1.414,1.414,3.9936,3.9936,0,0,0,0-5.6542Z" fill="currentColor"/><path d="M25.6572,10.3428a1,1,0,0,0-1.414,1.414,6.0027,6.0027,0,0,1,0,8.4864,1,1,0,1,0,1.414,1.414,8.0017,8.0017,0,0,0,0-11.3144Z" fill="currentColor"/><path d="M28.4873,7.5127a1,1,0,0,0-1.4141,1.4141,10.01,10.01,0,0,1,0,14.1464,1,1,0,1,0,1.4141,1.4141,12.01,12.01,0,0,0,0-16.9746Z" fill="currentColor"/><path d="M0,16a7.0085,7.0085,0,0,0,7,7h5V9H7A7.0085,7.0085,0,0,0,0,16Z" fill="currentColor"/><path d="M18.4336,5.0986a.9974.9974,0,0,0-1.0586.12L14,7.9193V24.0807l3.375,2.7006A1,1,0,0,0,19,26V6A1.0012,1.0012,0,0,0,18.4336,5.0986Z" fill="currentColor"/></g></svg>
