<svg xmlns="http://www.w3.org/2000/svg" viewBox="0 0 32 32"><title>Artboard-17</title><g id="Trash"><path d="M21,0H11A2.0059,2.0059,0,0,0,9,2H23A2.0059,2.0059,0,0,0,21,0Z" fill="currentColor"/><rect x="3" y="4" width="26" height="6" rx="2" ry="2" fill="currentColor"/><path d="M7,31.1A1.0146,1.0146,0,0,0,8,32H24a1.0146,1.0146,0,0,0,1-.9L26.91,12H5.09ZM20.75,15.95a1.0012,1.0012,0,1,1,2,.1l-.6,12a1.007,1.007,0,0,1-1,.95H21.1a1.0109,1.0109,0,0,1-.95-1.05ZM15,16a1,1,0,0,1,2,0V28a1,1,0,0,1-2,0Zm-4.8-1a1.004,1.004,0,0,1,1.05.95l.6,12A1.0109,1.0109,0,0,1,10.9,29h-.05a1.007,1.007,0,0,1-1-.95l-.6-12A1.004,1.004,0,0,1,10.2,15Z" fill="currentColor"/></g></svg>
