<svg xmlns="http://www.w3.org/2000/svg" viewBox="0 0 32 32"><title>Artboard-19</title><g id="Unlock"><path d="M18.9053,18.2266A2.9658,2.9658,0,0,0,16.751,16.09a3.273,3.273,0,0,0-.7569-.0908A3.0011,3.0011,0,0,0,13,19a2.9974,2.9974,0,0,0,1.498,2.5928A1.0006,1.0006,0,0,1,15,22.46V25a1,1,0,0,0,2,0V22.46a1.0006,1.0006,0,0,1,.502-.8672,3.0168,3.0168,0,0,0,1.4033-3.3657Z" fill="currentColor"/><path d="M23,10H11V7a5,5,0,0,1,9.9307-.835,1,1,0,1,0,1.9726-.331A7.0006,7.0006,0,0,0,9,7v3a4.0042,4.0042,0,0,0-4,4V28a4.0042,4.0042,0,0,0,4,4H23a4.0042,4.0042,0,0,0,4-4V14A4.0042,4.0042,0,0,0,23,10ZM19,22.9976V25a3,3,0,0,1-6,0V22.9966a5.0025,5.0025,0,0,1,4.2139-8.853,4.9455,4.9455,0,0,1,3.6347,3.6123A5.0079,5.0079,0,0,1,19,22.9976Z" fill="currentColor"/></g></svg>
