<svg xmlns="http://www.w3.org/2000/svg" viewBox="0 0 32 32"><title>Artboard-2</title><g id="User"><path d="M16,20a16.1051,16.1051,0,0,1,12.7125,5.6761A15.99,15.99,0,1,0,0,16a15.8975,15.8975,0,0,0,3.2769,9.6618C5.9564,22.2307,10.7081,20,16,20ZM16,3a7,7,0,1,1-7,7A7.0078,7.0078,0,0,1,16,3Z" fill="currentColor"/><path d="M16,22c-4.85,0-9.1594,2.0738-11.3937,5.2144a15.9559,15.9559,0,0,0,22.7906-.0034C25.18,24.1088,20.9,22,16,22Z" fill="currentColor"/><circle cx="16" cy="10" r="5" fill="currentColor"/></g></svg>
