<svg xmlns="http://www.w3.org/2000/svg" viewBox="0 0 32 32"><title>Artboard-20</title><g id="Web"><path d="M15,7.9785V.0507a16,16,0,0,0-2.1458.2635A17.3285,17.3285,0,0,0,9.9116,7.2866,25.6571,25.6571,0,0,0,15,7.9785Z" fill="currentColor"/><path d="M7.0167,15a43.8535,43.8535,0,0,1,.5649-6.2888A18.0472,18.0472,0,0,1,3.1112,6.56,15.8843,15.8843,0,0,0,.0507,15Z" fill="currentColor"/><path d="M22.4667,9.2673A27.8631,27.8631,0,0,1,17,9.9747V15h5.9846A41.7738,41.7738,0,0,0,22.4667,9.2673Z" fill="currentColor"/><path d="M17,7.9749a25.49,25.49,0,0,0,5.0845-.6958A17.0336,17.0336,0,0,0,19.1655.3172,15.993,15.993,0,0,0,17,.0507Z" fill="currentColor"/><path d="M15,24.0252a25.7233,25.7233,0,0,0-5.09.6852,17.3033,17.3033,0,0,0,2.9439,6.9753A15.9921,15.9921,0,0,0,15,31.9493Z" fill="currentColor"/><path d="M24.9845,17a43.8558,43.8558,0,0,1-.5654,6.3046A18.1523,18.1523,0,0,1,28.8814,25.45,15.8847,15.8847,0,0,0,31.9493,17Z" fill="currentColor"/><path d="M17,24.0263v7.923a15.9974,15.9974,0,0,0,2.1635-.2662,16.9259,16.9259,0,0,0,2.9268-6.97A25.6613,25.6613,0,0,0,17,24.0263Z" fill="currentColor"/><path d="M15,15V9.9781a27.7191,27.7191,0,0,1-5.468-.7169A40.965,40.965,0,0,0,9.0178,15Z" fill="currentColor"/><path d="M7.9893,25.2644A16.15,16.15,0,0,0,4.39,26.9769,16.0436,16.0436,0,0,0,9.916,30.7911,23.96,23.96,0,0,1,7.9893,25.2644Z" fill="currentColor"/><path d="M7.9673,6.72a23.4156,23.4156,0,0,1,1.91-5.497,16.0469,16.0469,0,0,0-5.479,3.7912A16.14,16.14,0,0,0,7.9673,6.72Z" fill="currentColor"/><path d="M24.0291,25.2676a23.4872,23.4872,0,0,1-1.911,5.5111,16.0456,16.0456,0,0,0,5.4857-3.7953A16.116,16.116,0,0,0,24.0291,25.2676Z" fill="currentColor"/><path d="M24.02,6.71a16.4272,16.4272,0,0,0,3.5771-1.7A16.0446,16.0446,0,0,0,22.1158,1.22,23.596,23.596,0,0,1,24.02,6.71Z" fill="currentColor"/><path d="M24.4194,8.7249A43.744,43.744,0,0,1,24.9846,15h6.9647a15.8848,15.8848,0,0,0-3.048-8.4238A17.911,17.911,0,0,1,24.4194,8.7249Z" fill="currentColor"/><path d="M7.0174,17H.0507a15.8856,15.8856,0,0,0,3.0642,8.4454A18.0992,18.0992,0,0,1,7.6,23.29,43.07,43.07,0,0,1,7.0174,17Z" fill="currentColor"/><path d="M15,17H9.0178a41.022,41.022,0,0,0,.5138,5.7432A27.6319,27.6319,0,0,1,15,22.0264Z" fill="currentColor"/><path d="M17,17v5.0277a27.572,27.572,0,0,1,5.47.7148A41.9277,41.9277,0,0,0,22.9846,17Z" fill="currentColor"/></g></svg>
