<svg xmlns="http://www.w3.org/2000/svg" viewBox="0 0 32 32"><title>Artboard-15</title><g id="Zoom_in" data-name="Zoom in"><path d="M10,0A10,10,0,1,0,20,10,10.0165,10.0165,0,0,0,10,0Zm0,18a8,8,0,1,1,8-8A8.0106,8.0106,0,0,1,10,18Z" fill="currentColor"/><path d="M10,4a6,6,0,1,0,6,6A6.0048,6.0048,0,0,0,10,4Zm4,7H11v3H9V11H6V9H9V6h2V9h3Z" fill="currentColor"/><path d="M20.7512,15.33a12.0484,12.0484,0,0,1-5.42,5.42l2.25,2.25,5.42-5.42Z" fill="currentColor"/><path d="M30.4613,23.05l-4.333-4.3415a1,1,0,0,0-1.4149-.0007l-.9822.9822-4.05,4.04-.9763.9822a1,1,0,0,0,.0028,1.4128l4.3435,4.335a5.24,5.24,0,1,0,7.41-7.41Z" fill="currentColor"/></g></svg>
